<svg width="816" height="816" viewBox="0 0 816 816" fill="none" xmlns="http://www.w3.org/2000/svg">
<path d="M408.304 0.0224609C410.037 0.115691 411.425 0.511994 412.609 1.12598C413.875 1.7831 414.884 2.67585 415.816 3.65527L415.823 3.66309C423.452 12.0209 427.502 24.4315 433.993 61.4131L433.994 61.416L446.993 137.909L447.406 140.102C449.454 150.724 451.283 156.57 454.955 165.787C457.368 170.247 459.833 173.219 463.257 175.427C466.488 177.51 470.606 178.936 476.42 180.25L477.606 180.511L477.622 180.515C504.011 187.085 518.687 193.189 544.749 208.065L544.758 208.071L544.768 208.078C569.285 223.625 582.414 233.293 601.881 256.176L601.885 256.181C622.43 280.958 632.092 297.353 644.281 329.193L645.468 332.324L645.472 332.332H645.471C654.201 356.832 657.252 377.081 658.85 422.054L659 426.483V426.492C659.51 457.966 655.828 487.095 651.49 507.105L651.487 507.119L651.483 507.132C649.276 515.235 647.366 521.949 645.96 527.287C644.554 532.627 643.67 536.53 643.5 539.023C643.362 543.516 645.196 546.454 649.874 552.167L651.06 553.479C663.391 566.968 678.155 578.247 703.083 597.287L704.804 598.603L704.806 598.604C714.442 606.027 722.16 613.15 744.364 636.656L744.372 636.665C760.993 655.075 770.915 671.017 788.935 702.753L788.942 702.765L788.948 702.776C796.642 718.186 801.455 727.594 805.059 736.831C808.442 745.503 810.759 754.018 813.41 767.203L813.945 769.904L813.947 769.915C815.173 777.055 816.05 786.134 815.742 794.232C815.588 798.281 815.138 802.102 814.278 805.32C813.421 808.528 812.142 811.195 810.29 812.871C808.416 814.566 805.689 815.327 802.436 815.438C799.177 815.55 795.322 815.011 791.118 814.036C782.708 812.086 772.799 808.365 763.264 804.463L763.256 804.46L763.249 804.456C738.873 793.497 734.49 790.56 710.065 774.183L708.175 772.915L708.165 772.908C687.706 758.432 677.12 749.083 656.103 728.356L656.097 728.351C644.139 716.208 638.001 709.289 624.539 689.279C613.278 672.542 607.924 663.378 598.547 643.211V643.21L588.003 621.216L587.994 621.196L587.986 621.176C585.751 615.216 584.335 611.625 584.142 608.468C583.945 605.25 585.012 602.516 587.523 598.246L587.537 598.224L587.552 598.202C589.566 595.481 591.334 593.587 593.398 591.386C595.46 589.187 597.828 586.67 601.066 582.685C605.916 576.715 609.985 567.778 615.491 554.311C620.098 543.039 620.827 538.891 622.006 531.422C623.182 523.977 622.953 518.021 622.456 512.545C621.824 505.601 619.679 495.306 616.51 489.231C613.53 483.519 610.438 479.32 606.867 476.057C603.297 472.795 599.227 470.448 594.268 468.464L594.258 468.46C587.577 465.616 581.864 464.98 575.013 465C570.634 465.123 567.644 465.498 565.224 466.259C562.831 467.012 560.967 468.151 558.854 469.856C557.27 471.763 556.858 473.953 557.357 476.859L557.469 477.454L557.471 477.464C557.607 478.196 557.78 478.999 557.988 479.886L558.159 480.614L557.419 480.493C554.459 480.007 552.69 480.206 547.529 480.994C544.515 481.489 538.593 482.98 532.66 484.974C526.729 486.966 510.204 493.457 494.224 501.447L468.224 514.447L468.217 514.45L468.211 514.453C460.436 518.06 458.616 519.192 450.157 522.957L450.137 522.965C444.046 525.364 437.377 527.245 430.591 528.492L430.581 528.494L430.57 528.495C421.958 529.701 416.935 530.12 408.286 530.468L408.285 530.5C408.157 530.495 408.029 530.489 407.902 530.484C407.775 530.489 407.648 530.495 407.52 530.5L407.518 530.468C398.87 530.12 393.846 529.701 385.235 528.495L385.224 528.494L385.213 528.492C378.427 527.245 371.759 525.364 365.667 522.965L365.658 522.961L365.647 522.957C357.188 519.192 355.369 518.06 347.593 514.453L347.586 514.45L321.581 501.447C305.601 493.457 289.075 486.966 283.145 484.974C277.211 482.98 271.288 481.488 268.275 480.993V480.994C263.114 480.206 261.345 480.007 258.385 480.493L257.646 480.614L257.817 479.886C258.025 478.999 258.197 478.196 258.333 477.464L258.335 477.454C258.998 474.248 258.64 471.891 256.95 469.856C254.837 468.151 252.973 467.011 250.581 466.259C248.161 465.498 245.17 465.123 240.791 465C233.94 464.98 228.227 465.616 221.546 468.46L221.537 468.464C216.577 470.448 212.508 472.795 208.938 476.057C205.367 479.32 202.275 483.519 199.294 489.231C196.125 495.306 193.98 505.601 193.349 512.545C192.851 518.021 192.622 523.977 193.797 531.422C194.977 538.891 195.706 543.039 200.314 554.311C205.819 567.777 209.889 576.715 214.739 582.685C217.977 586.67 220.345 589.187 222.407 591.386C224.471 593.587 226.239 595.481 228.252 598.202L228.268 598.224L228.282 598.246C230.793 602.516 231.86 605.25 231.663 608.468C231.469 611.625 230.054 615.216 227.819 621.176L227.811 621.196L227.801 621.216L217.256 643.21C207.88 663.377 202.527 672.542 191.266 689.279C177.803 709.289 171.666 716.207 159.708 728.351L159.702 728.356C138.684 749.083 128.098 758.432 107.639 772.908L107.629 772.915L105.74 774.183C81.3149 790.56 76.9319 793.497 52.5562 804.456L52.5483 804.46L52.5405 804.463C43.0061 808.365 33.0969 812.086 24.687 814.036C20.4829 815.011 16.6281 815.55 13.3687 815.438C10.1159 815.327 7.38828 814.566 5.51514 812.871C3.66298 811.195 2.38399 808.528 1.52686 805.32C0.667038 802.102 0.215989 798.281 0.0620117 794.232C-0.245931 786.134 0.63194 777.055 1.85791 769.915L1.85986 769.904C4.74202 755.153 7.13693 746.081 10.7456 736.831C14.3494 727.594 19.1624 718.186 26.8569 702.776L26.8687 702.753C44.8887 671.017 54.812 655.075 71.4331 636.665L71.4399 636.656C93.6443 613.15 101.362 606.027 110.999 598.604L111 598.603L112.722 597.287L113.026 597.685L112.723 597.287C138.455 577.633 153.356 566.248 165.931 552.167C170.609 546.454 172.442 543.516 172.304 539.023C172.134 536.53 171.25 532.627 169.844 527.287C168.439 521.949 166.528 515.235 164.322 507.132L164.318 507.119L164.315 507.105C159.977 487.095 156.294 457.966 156.804 426.492V426.483C158.361 378.382 161.321 357.622 170.333 332.332L170.335 332.324H170.336C183.101 298.402 192.712 281.757 213.919 256.181L213.923 256.176C233.391 233.293 246.52 223.624 271.037 208.078L271.046 208.071L271.056 208.065C297.118 193.189 311.794 187.085 338.183 180.515L338.199 180.511C344.646 179.123 349.102 177.648 352.547 175.427C355.972 173.219 358.436 170.246 360.849 165.787C364.766 155.955 366.586 149.959 368.812 137.909L381.811 61.416V61.4131C388.302 24.4316 392.353 12.0209 399.982 3.66309L399.989 3.65527L400.342 3.29199C401.177 2.45625 402.087 1.7009 403.195 1.12598C404.379 0.511823 405.767 0.115733 407.5 0.0224609V0C407.636 0 407.77 0.00244554 407.902 0.00585938C408.034 0.00242893 408.168 4.36524e-06 408.304 0V0.0224609ZM253.1 371.937C233.053 343.529 207.325 327.188 195.636 335.437C180.062 349.637 185.6 382.437 201.6 404.437C203.905 406.742 212.303 416 226.303 421C239.803 425.821 248.303 437 247.303 433C246.303 419 254.378 416.869 259.303 416.5C272.803 415.5 273.147 400.344 253.1 371.937ZM620.169 335.437C608.48 327.187 582.752 343.529 562.705 371.937C542.658 400.344 543.002 415.5 556.501 416.5C561.427 416.869 569.501 419 568.501 433C567.502 437 576.002 425.821 589.501 421C603.501 416 611.899 406.742 614.205 404.437C630.204 382.437 635.744 349.637 620.169 335.437Z" fill="white"/>
</svg>
